<svg xmlns="http://www.w3.org/2000/svg" viewBox="0 0 32 40" x="0px" y="0px"><g><path d="M28.29883,31.186a3.40569,3.40569,0,0,1-2.57565-1.376c-2.09281-2.10052-6.92-6.94524-8.79007-8.81341A10.92739,10.92739,0,0,1,3.98782,19.22892c-7.738-7.64566-.22409-20.83547,10.275-18.07943C20.86926,2.419,24.58953,11.23357,21.01465,16.9126l9.33154,9.33154A2.91175,2.91175,0,0,1,28.29883,31.186ZM18.05518,20.27979c2.26885,2.26748,6.83579,6.85491,9.11573,9.14112A1.59618,1.59618,0,0,0,29.42719,27.163L20.2915,18.02783A10.14029,10.14029,0,0,1,18.05518,20.27979ZM11.50977,2.10352C3.34832,2.0205-1.11642,12.5298,4.91522,18.31789c3.93366,4.25619,11.80584,3.38078,14.73029-1.66994l.001-.00147.00147-.002.00049-.00049C23.70561,10.59071,18.81012,1.81986,11.50977,2.10352Zm.05078,17.54589c-6.0069.15464-10.131-6.92334-6.94072-12.0352,3.11445-5.83046,12.09654-5.2946,14.44705.988A8.01482,8.01482,0,0,1,11.56055,19.64941Zm-.05469-14.834A6.77839,6.77839,0,0,0,6.83337,16.392c2.76675,3.02944,8.48494,2.3986,10.4962-1.17342C20.27817,10.93322,16.67866,4.55914,11.50586,4.81543Zm2.561,11.14111c-.96318.10216-1.83766-1.0895-2.46093-1.67285L10.49561,15.394a1.89983,1.89983,0,0,1-2.68653-2.687L8.919,11.59668l-1.1167-1.11719a1.90867,1.90867,0,0,1,0-2.687,1.94658,1.94658,0,0,1,2.687.00049L11.606,8.91016,12.72363,7.793a1.94566,1.94566,0,0,1,2.687,0,1.90969,1.90969,0,0,1-.0005,2.68652L14.293,11.59668l1.11719,1.11768A1.912,1.912,0,0,1,14.06689,15.95654ZM11.606,12.71484a.64735.64735,0,0,1,.45947.19043l1.57715,1.57666a.60019.60019,0,0,0,.84863-.84863h0l-1.57666-1.57715a.64951.64951,0,0,1,0-.91894l1.57666-1.57666a.60429.60429,0,0,0,0-.84864.61412.61412,0,0,0-.84813,0l-1.57764,1.57666a.64953.64953,0,0,1-.91895,0L9.56982,8.71191a.60005.60005,0,0,0-.8486.84818l1.57663,1.57712a.64951.64951,0,0,1,0,.91894L8.728,13.626a.60037.60037,0,0,0,.84866.84909l1.56979-1.5698A.64737.64737,0,0,1,11.606,12.71484Z"/></g><text x="0" y="47" fill="#000000" font-size="5px" font-weight="bold" font-family="'Helvetica Neue', Helvetica, Arial-Unicode, Arial, Sans-serif">Created by sugeng riyanto</text><text x="0" y="52" fill="#000000" font-size="5px" font-weight="bold" font-family="'Helvetica Neue', Helvetica, Arial-Unicode, Arial, Sans-serif">from the Noun Project</text></svg>